<?xml version="1.0" standalone="no"?><!DOCTYPE svg PUBLIC "-//W3C//DTD SVG 1.1//EN" "http://www.w3.org/Graphics/SVG/1.1/DTD/svg11.dtd"><svg t="1726388408394" class="icon" viewBox="0 0 1024 1024" version="1.1" xmlns="http://www.w3.org/2000/svg" p-id="12021" width="64" height="64" xmlns:xlink="http://www.w3.org/1999/xlink"><path d="M877.696 0H146.303C65.475 0 0 65.54 0 146.304V877.76c0 80.764 65.469 146.24 146.31 146.24h731.398c80.822 0 146.304-65.476 146.304-146.24V146.304C1024 65.54 958.537 0 877.696 0z" fill="#e35643" p-id="12022" data-spm-anchor-id="a313x.search_index.0.i42.67953a81X6BRHh" class=""></path><path d="M519.872 472.08l-73.07-22.05a20.432 20.372 90 0 1-13.916-25.726 20.563 20.503 90 0 1 7.983-10.631l93.486-64.226a20.344 20.285 90 0 0 8.943-17.02l-1.483-111.126a20.869 20.808 90 0 1 20.852-20.825 21.657 21.594 90 0 1 12.912 4.069l91.785 66.5a21.788 21.725 90 0 0 19.412 2.976l108.448-35.7a21.35 21.288 90 0 1 26.785 12.862 19.907 19.849 90 0 1 0 13.169L785.236 369.659a19.994 19.936 90 0 0 3.097 18.857l68.49 89.12a20.125 20.067 90 0 1-4.32 28.7 21.657 21.594 90 0 1-12.912 4.07l-114.469-1.4a21.438 21.376 90 0 0-17.536 8.662l-66.09 90.782a21.657 21.594 90 0 1-29.49 4.9 20.563 20.503 90 0 1-7.983-10.675l-21.201-66.195-267.937 300.348a77.132 76.909 90 0 1-110.018 3.807 71.401 71.194 90 0 1 3.926-106.796l311.08-261.76z m-278.014-3.85c-43.492 0-78.828-34.3-78.828-76.564s35.336-76.564 78.828-76.564c43.58 0 78.872 34.3 78.872 76.564s-35.335 76.564-78.872 76.564z m183.176-218.754c-24.865 0-45.063-19.6-45.063-43.75s20.198-43.75 45.063-43.75c24.866 0 45.063 19.6 45.063 43.75s-20.197 43.75-45.063 43.75zM750.99 796.36c-43.536 0-78.828-34.3-78.828-76.563s35.292-76.564 78.828-76.564 78.872 34.3 78.872 76.564-35.336 76.563-78.872 76.563z" fill="#ffffff" p-id="12023" data-spm-anchor-id="a313x.search_index.0.i41.67953a81X6BRHh" class=""></path></svg>