<svg xmlns="http://www.w3.org/2000/svg" width="627" xmlns:xlink="http://www.w3.org/1999/xlink" viewBox="0 0 627 329" height="329"><defs/><g transform="translate(-100.00,-186.28)"><g transform="translate(212.020176,186.275394)" id="shape1"><text style="fill:#191919;font-family:微软雅黑,PingFang SC,Mircrosoft YaHei,Arial;font-size:11.00pt;font-weight:bold" xml:space="preserve"><tspan style="font-family:微软雅黑,PingFang SC,Mircrosoft YaHei,Arial" x="30.7" y="22.2">应用进程</tspan></text></g><g transform="translate(212.020176,220.275394)" id="shape2"><text style="fill:#191919;font-family:微软雅黑,PingFang SC,Mircrosoft YaHei,Arial;font-size:10.00pt" xml:space="preserve"><tspan style="font-family:微软雅黑,PingFang SC,Mircrosoft YaHei,Arial" x="42.3" y="20.2">select</tspan></text></g><g transform="translate(495.093176,186.275394)" id="shape3"><text style="fill:#191919;font-family:微软雅黑,PingFang SC,Mircrosoft YaHei,Arial;font-size:11.00pt;font-weight:bold" xml:space="preserve"><tspan style="font-family:微软雅黑,PingFang SC,Mircrosoft YaHei,Arial" x="45.3" y="22.2">内核</tspan></text></g><g transform="translate(495.093176,220.275394)" id="shape4"><text style="fill:#191919;font-family:微软雅黑,PingFang SC,Mircrosoft YaHei,Arial;font-size:10.00pt" xml:space="preserve"><tspan style="font-family:微软雅黑,PingFang SC,Mircrosoft YaHei,Arial" x="13.3" y="20.2">无数据报准备好</tspan></text></g><g transform="translate(310.093176,237.275394)" id="shape5"><path fill="none" stroke-width="1.333330035209656" stroke="#191919" d="M.0,.0L178.1,.0"/><path fill="#191919" stroke-width="1" stroke="#191919" d="M178.1,-3.5L185.0,.0L178.1,3.5L178.1,-3.5" stroke-linecap="round"/></g><g transform="translate(555.093176,255.425394)" id="shape6"><path fill="none" stroke-width="1.333330035209656" stroke="#191919" d="M.0,.0L.0,68.1"/><path fill="#191919" stroke-width="1" stroke="#191919" d="M3.5,68.1L.0,75.0L-3.5,68.1L3.5,68.1" stroke-linecap="round"/></g><g transform="translate(495.093176,330.425394)" id="shape7"><text style="fill:#191919;font-family:微软雅黑,PingFang SC,Mircrosoft YaHei,Arial;font-size:10.00pt" xml:space="preserve"><tspan style="font-family:微软雅黑,PingFang SC,Mircrosoft YaHei,Arial" x="20.0" y="20.7">数据报准备好</tspan><tspan style="font-family:微软雅黑,PingFang SC,Mircrosoft YaHei,Arial" x="26.7" y="38.7">复制数据报</tspan></text></g><g transform="translate(555.093176,387.425394)" id="shape8"><path fill="none" stroke-width="1.333330035209656" stroke="#191919" d="M.0,.0L.0,87.1"/><path fill="#191919" stroke-width="1" stroke="#191919" d="M3.5,87.1L.0,94.0L-3.5,87.1L3.5,87.1" stroke-linecap="round"/></g><g transform="translate(351.556176,204.425394)" id="shape9"><text style="fill:#191919;font-family:微软雅黑,PingFang SC,Mircrosoft YaHei,Arial;font-size:10.00pt" xml:space="preserve"><tspan style="font-family:微软雅黑,PingFang SC,Mircrosoft YaHei,Arial" x="33.3" y="20.2">系统调用</tspan></text></g><g transform="translate(495.093176,481.425394)" id="shape10"><text style="fill:#191919;font-family:微软雅黑,PingFang SC,Mircrosoft YaHei,Arial;font-size:10.00pt" xml:space="preserve"><tspan style="font-family:微软雅黑,PingFang SC,Mircrosoft YaHei,Arial" x="33.3" y="20.2">复制完成</tspan></text></g><path fill="none" stroke-width="1.333330035209656" stroke="#000000" transform="translate(607.093176,236.425394)" d="M.0,.0L7.0,.0C8.9,-0.3,10.9,.4,12.3,1.7C13.6,3.1,14.3,5.1,14.0,7.0L14.0,55.0C13.7,56.9,14.4,58.9,15.7,60.3C17.1,61.6,19.1,62.3,21.0,62.0C19.1,61.7,17.1,62.4,15.7,63.7C14.4,65.1,13.7,67.1,14.0,69.0L14.0,117.0C14.3,118.9,13.6,120.9,12.3,122.3C10.9,123.6,8.9,124.3,7.0,124.0L.0,124.0" id="shape11"/><g transform="translate(599.093176,281.425394)" id="shape12"><text style="fill:#191919;font-family:微软雅黑,PingFang SC,Mircrosoft YaHei,Arial;font-size:10.00pt" xml:space="preserve"><tspan style="font-family:微软雅黑,PingFang SC,Mircrosoft YaHei,Arial" x="33.3" y="20.2">等待数据</tspan></text></g><path fill="none" stroke-width="1.333330035209656" stroke="#000000" transform="translate(607.093176,368.425394)" d="M.0,.0L7.0,.0C8.9,-0.3,10.9,.4,12.3,1.7C13.6,3.1,14.3,5.1,14.0,7.0L14.0,55.0C13.7,56.9,14.4,58.9,15.7,60.3C17.1,61.6,19.1,62.3,21.0,62.0C19.1,61.7,17.1,62.4,15.7,63.7C14.4,65.1,13.7,67.1,14.0,69.0L14.0,117.0C14.3,118.9,13.6,120.9,12.3,122.3C10.9,123.6,8.9,124.3,7.0,124.0L.0,124.0" id="shape13"/><g transform="translate(607.093176,393.925394)" id="shape14"><text style="fill:#191919;font-family:微软雅黑,PingFang SC,Mircrosoft YaHei,Arial;font-size:10.00pt" xml:space="preserve"><tspan style="font-family:微软雅黑,PingFang SC,Mircrosoft YaHei,Arial" x="33.3" y="20.7">将数据从</tspan><tspan style="font-family:微软雅黑,PingFang SC,Mircrosoft YaHei,Arial" x="26.7" y="38.7">内核复制到</tspan><tspan style="font-family:微软雅黑,PingFang SC,Mircrosoft YaHei,Arial" x="33.3" y="56.7">用户空间</tspan></text></g><g transform="translate(212.020176,481.425394)" id="shape15"><text style="fill:#191919;font-family:微软雅黑,PingFang SC,Mircrosoft YaHei,Arial;font-size:10.00pt" xml:space="preserve"><tspan style="font-family:微软雅黑,PingFang SC,Mircrosoft YaHei,Arial" x="26.7" y="20.2">处理数据报</tspan></text></g><path fill="none" stroke-width="1.333330035209656" stroke="#000000" transform="matrix(-1.000000,0.000000,0.000000,1.000000,236.093176,236.425394)" d="M.0,.0L7.0,.0C8.9,-0.3,10.9,.4,12.3,1.7C13.6,3.1,14.3,5.1,14.0,7.0L14.0,61.3C13.7,63.2,14.4,65.2,15.7,66.5C17.1,67.9,19.1,68.6,21.0,68.3C19.1,68.0,17.1,68.7,15.7,70.0C14.4,71.4,13.7,73.4,14.0,75.3L14.0,129.6C14.3,131.5,13.6,133.4,12.3,134.8C10.9,136.2,8.9,136.9,7.0,136.6L.0,136.6" id="shape16"/><g transform="translate(100.093176,258.712697)" id="shape17"><text style="fill:#191919;font-family:微软雅黑,PingFang SC,Mircrosoft YaHei,Arial;font-size:10.00pt" xml:space="preserve"><tspan style="font-family:微软雅黑,PingFang SC,Mircrosoft YaHei,Arial" x="9.0" y="20.7">进程受阻于select</tspan><tspan style="font-family:微软雅黑,PingFang SC,Mircrosoft YaHei,Arial" x="6.7" y="38.7">调用，等待可能多</tspan><tspan style="font-family:微软雅黑,PingFang SC,Mircrosoft YaHei,Arial" x="6.7" y="56.7">个套接字中任一个</tspan><tspan style="font-family:微软雅黑,PingFang SC,Mircrosoft YaHei,Arial" x="33.3" y="74.7">变为可读</tspan></text></g><g transform="translate(353.556176,466.425394)" id="shape18"><text style="fill:#191919;font-family:微软雅黑,PingFang SC,Mircrosoft YaHei,Arial;font-size:10.00pt" xml:space="preserve"><tspan style="font-family:微软雅黑,PingFang SC,Mircrosoft YaHei,Arial" x="20.0" y="20.2">返回成功指示</tspan></text></g><g transform="translate(312.000000,376.000000)" id="shape19"><path fill="none" stroke-width="1.333330035209656" stroke="#191919" d="M.0,.0L178.1,.0"/><path fill="#191919" stroke-width="1" stroke="#191919" d="M178.1,-3.5L185.0,.0L178.1,3.5L178.1,-3.5" stroke-linecap="round"/></g><g transform="translate(311.000000,347.000000)" id="shape20"><path fill="none" stroke-width="1.333330035209656" stroke="#191919" d="M6.9,.0L185.0,.0"/><path fill="#191919" stroke-width="1" stroke="#191919" d="M6.9,3.5L.0,.0L6.9,-3.5L6.9,3.5" stroke-linecap="round"/></g><g transform="translate(351.556176,315.000000)" id="shape21"><text style="fill:#191919;font-family:微软雅黑,PingFang SC,Mircrosoft YaHei,Arial;font-size:10.00pt" xml:space="preserve"><tspan style="font-family:微软雅黑,PingFang SC,Mircrosoft YaHei,Arial" x="20.0" y="20.2">返回可读条件</tspan></text></g><g transform="translate(350.556176,346.425394)" id="shape22"><text style="fill:#191919;font-family:微软雅黑,PingFang SC,Mircrosoft YaHei,Arial;font-size:10.00pt" xml:space="preserve"><tspan style="font-family:微软雅黑,PingFang SC,Mircrosoft YaHei,Arial" x="33.3" y="20.2">系统调用</tspan></text></g><g transform="translate(312.000000,501.000000)" id="shape23"><path fill="none" stroke-width="1.333330035209656" stroke="#191919" d="M6.9,.0L185.0,.0"/><path fill="#191919" stroke-width="1" stroke="#191919" d="M6.9,3.5L.0,.0L6.9,-3.5L6.9,3.5" stroke-linecap="round"/></g><path fill="none" stroke-width="1.333330035209656" stroke="#000000" transform="matrix(-1.000000,0.000000,0.000000,1.000000,236.093176,379.000000)" d="M.0,.0L7.0,.0C8.9,-0.3,10.9,.4,12.3,1.7C13.6,3.1,14.3,5.1,14.0,7.0L14.0,53.7C13.7,55.6,14.4,57.6,15.7,59.0C17.1,60.3,19.1,61.0,21.0,60.7C19.1,60.4,17.1,61.1,15.7,62.5C14.4,63.8,13.7,65.8,14.0,67.7L14.0,114.4C14.3,116.4,13.6,118.3,12.3,119.7C10.9,121.1,8.9,121.7,7.0,121.4L.0,121.4" id="shape24"/><g transform="translate(212.020176,357.425394)" id="shape25"><text style="fill:#191919;font-family:微软雅黑,PingFang SC,Mircrosoft YaHei,Arial;font-size:10.00pt" xml:space="preserve"><tspan style="font-family:微软雅黑,PingFang SC,Mircrosoft YaHei,Arial" x="31.0" y="20.2">recvfrom</tspan></text></g><g transform="translate(100.093176,412.712697)" id="shape26"><text style="fill:#191919;font-family:微软雅黑,PingFang SC,Mircrosoft YaHei,Arial;font-size:10.00pt" xml:space="preserve"><tspan style="font-family:微软雅黑,PingFang SC,Mircrosoft YaHei,Arial" x="6.7" y="20.7">数据复制到应用缓</tspan><tspan style="font-family:微软雅黑,PingFang SC,Mircrosoft YaHei,Arial" x="6.7" y="38.7">冲区期间进程阻塞</tspan></text></g></g></svg>