<svg xmlns="http://www.w3.org/2000/svg" width="651" xmlns:xlink="http://www.w3.org/1999/xlink" viewBox="0 0 651 332" height="332"><defs/><g transform="translate(-53.00,-185.94)"><g transform="translate(183.020176,185.942060)" id="shape1"><text style="fill:#191919;font-family:微软雅黑,PingFang SC,Mircrosoft YaHei,Arial;font-size:11.00pt;font-weight:bold" xml:space="preserve"><tspan style="font-family:微软雅黑,PingFang SC,Mircrosoft YaHei,Arial" x="30.7" y="22.2">应用进程</tspan></text></g><g transform="translate(181.020176,212.942060)" id="shape2"><text style="fill:#191919;font-family:微软雅黑,PingFang SC,Mircrosoft YaHei,Arial;font-size:10.00pt" xml:space="preserve"><tspan style="font-family:微软雅黑,PingFang SC,Mircrosoft YaHei,Arial" x="21.7" y="20.7">建立SIGIO的</tspan><tspan style="font-family:微软雅黑,PingFang SC,Mircrosoft YaHei,Arial" x="20.0" y="38.7">信号处理程序</tspan></text></g><g transform="translate(472.093176,185.942060)" id="shape3"><text style="fill:#191919;font-family:微软雅黑,PingFang SC,Mircrosoft YaHei,Arial;font-size:11.00pt;font-weight:bold" xml:space="preserve"><tspan style="font-family:微软雅黑,PingFang SC,Mircrosoft YaHei,Arial" x="45.3" y="22.2">内核</tspan></text></g><g transform="translate(287.093176,239.942060)" id="shape4"><path fill="none" stroke-width="1.333330035209656" stroke="#191919" d="M.0,.0L178.1,.0"/><path fill="#191919" stroke-width="1" stroke="#191919" d="M178.1,-3.5L185.0,.0L178.1,3.5L178.1,-3.5" stroke-linecap="round"/></g><g transform="translate(472.093176,333.092060)" id="shape5"><text style="fill:#191919;font-family:微软雅黑,PingFang SC,Mircrosoft YaHei,Arial;font-size:10.00pt" xml:space="preserve"><tspan style="font-family:微软雅黑,PingFang SC,Mircrosoft YaHei,Arial" x="20.0" y="20.7">数据报准备好</tspan><tspan style="font-family:微软雅黑,PingFang SC,Mircrosoft YaHei,Arial" x="26.7" y="38.7">复制数据报</tspan></text></g><g transform="translate(532.093176,390.092060)" id="shape6"><path fill="none" stroke-width="1.333330035209656" stroke="#191919" d="M.0,.0L.0,87.1"/><path fill="#191919" stroke-width="1" stroke="#191919" d="M3.5,87.1L.0,94.0L-3.5,87.1L3.5,87.1" stroke-linecap="round"/></g><g transform="translate(309.020176,200.000000)" id="shape7"><text style="fill:#191919;font-family:微软雅黑,PingFang SC,Mircrosoft YaHei,Arial;font-size:10.00pt" xml:space="preserve"><tspan style="font-family:微软雅黑,PingFang SC,Mircrosoft YaHei,Arial" x="6.2" y="30.2">signaction 系统调用</tspan></text></g><g transform="translate(472.093176,484.092060)" id="shape8"><text style="fill:#191919;font-family:微软雅黑,PingFang SC,Mircrosoft YaHei,Arial;font-size:10.00pt" xml:space="preserve"><tspan style="font-family:微软雅黑,PingFang SC,Mircrosoft YaHei,Arial" x="33.3" y="20.2">复制完成</tspan></text></g><path fill="none" stroke-width="1.333330035209656" stroke="#000000" transform="translate(584.093176,239.092060)" d="M.0,.0L7.0,.0C8.9,-0.3,10.9,.4,12.3,1.7C13.6,3.1,14.3,5.1,14.0,7.0L14.0,55.0C13.7,56.9,14.4,58.9,15.7,60.3C17.1,61.6,19.1,62.3,21.0,62.0C19.1,61.7,17.1,62.4,15.7,63.7C14.4,65.1,13.7,67.1,14.0,69.0L14.0,117.0C14.3,118.9,13.6,120.9,12.3,122.3C10.9,123.6,8.9,124.3,7.0,124.0L.0,124.0" id="shape9"/><g transform="translate(576.093176,284.092060)" id="shape10"><text style="fill:#191919;font-family:微软雅黑,PingFang SC,Mircrosoft YaHei,Arial;font-size:10.00pt" xml:space="preserve"><tspan style="font-family:微软雅黑,PingFang SC,Mircrosoft YaHei,Arial" x="33.3" y="20.2">等待数据</tspan></text></g><path fill="none" stroke-width="1.333330035209656" stroke="#000000" transform="translate(584.093176,371.092060)" d="M.0,.0L7.0,.0C8.9,-0.3,10.9,.4,12.3,1.7C13.6,3.1,14.3,5.1,14.0,7.0L14.0,55.0C13.7,56.9,14.4,58.9,15.7,60.3C17.1,61.6,19.1,62.3,21.0,62.0C19.1,61.7,17.1,62.4,15.7,63.7C14.4,65.1,13.7,67.1,14.0,69.0L14.0,117.0C14.3,118.9,13.6,120.9,12.3,122.3C10.9,123.6,8.9,124.3,7.0,124.0L.0,124.0" id="shape11"/><g transform="translate(584.093176,396.592060)" id="shape12"><text style="fill:#191919;font-family:微软雅黑,PingFang SC,Mircrosoft YaHei,Arial;font-size:10.00pt" xml:space="preserve"><tspan style="font-family:微软雅黑,PingFang SC,Mircrosoft YaHei,Arial" x="33.3" y="20.7">将数据从</tspan><tspan style="font-family:微软雅黑,PingFang SC,Mircrosoft YaHei,Arial" x="26.7" y="38.7">内核复制到</tspan><tspan style="font-family:微软雅黑,PingFang SC,Mircrosoft YaHei,Arial" x="33.3" y="56.7">用户空间</tspan></text></g><g transform="translate(181.020176,484.092060)" id="shape13"><text style="fill:#191919;font-family:微软雅黑,PingFang SC,Mircrosoft YaHei,Arial;font-size:10.00pt" xml:space="preserve"><tspan style="font-family:微软雅黑,PingFang SC,Mircrosoft YaHei,Arial" x="26.7" y="20.2">处理数据报</tspan></text></g><path fill="none" stroke-width="1.333330035209656" stroke="#000000" transform="matrix(-1.000000,0.000000,0.000000,1.000000,195.093176,239.092760)" d="M.0,.0L7.0,.0C8.9,-0.3,10.9,.4,12.3,1.7C13.6,3.1,14.3,5.1,14.0,7.0L14.0,49.3C13.7,51.2,14.4,53.2,15.7,54.5C17.1,55.9,19.1,56.6,21.0,56.3C19.1,56.0,17.1,56.7,15.7,58.0C14.4,59.4,13.7,61.4,14.0,63.3L14.0,105.6C14.3,107.5,13.6,109.4,12.3,110.8C10.9,112.2,8.9,112.8,7.0,112.6L.0,112.6" id="shape14"/><g transform="translate(69.000000,248.379910)" id="shape15"><text style="fill:#191919;font-family:微软雅黑,PingFang SC,Mircrosoft YaHei,Arial;font-size:10.00pt" xml:space="preserve"><tspan style="font-family:微软雅黑,PingFang SC,Mircrosoft YaHei,Arial" x="20.0" y="49.2">进程继续执行</tspan></text></g><g transform="translate(330.556176,469.092060)" id="shape16"><text style="fill:#191919;font-family:微软雅黑,PingFang SC,Mircrosoft YaHei,Arial;font-size:10.00pt" xml:space="preserve"><tspan style="font-family:微软雅黑,PingFang SC,Mircrosoft YaHei,Arial" x="20.0" y="20.2">返回成功指示</tspan></text></g><g transform="translate(289.000176,378.667060)" id="shape17"><path fill="none" stroke-width="1.333330035209656" stroke="#191919" d="M.0,.0L178.1,.0"/><path fill="#191919" stroke-width="1" stroke="#191919" d="M178.1,-3.5L185.0,.0L178.1,3.5L178.1,-3.5" stroke-linecap="round"/></g><g transform="translate(288.000176,349.667060)" id="shape18"><path fill="none" stroke-width="1.333330035209656" stroke="#191919" d="M6.9,.0L185.0,.0"/><path fill="#191919" stroke-width="1" stroke="#191919" d="M6.9,3.5L.0,.0L6.9,-3.5L6.9,3.5" stroke-linecap="round"/></g><g transform="translate(328.556176,317.667060)" id="shape19"><text style="fill:#191919;font-family:微软雅黑,PingFang SC,Mircrosoft YaHei,Arial;font-size:10.00pt" xml:space="preserve"><tspan style="font-family:微软雅黑,PingFang SC,Mircrosoft YaHei,Arial" x="28.3" y="20.2">提交SIGIO</tspan></text></g><g transform="translate(327.556176,349.092060)" id="shape20"><text style="fill:#191919;font-family:微软雅黑,PingFang SC,Mircrosoft YaHei,Arial;font-size:10.00pt" xml:space="preserve"><tspan style="font-family:微软雅黑,PingFang SC,Mircrosoft YaHei,Arial" x="33.3" y="20.2">系统调用</tspan></text></g><g transform="translate(289.000176,503.667060)" id="shape21"><path fill="none" stroke-width="1.333330035209656" stroke="#191919" d="M6.9,.0L185.0,.0"/><path fill="#191919" stroke-width="1" stroke="#191919" d="M6.9,3.5L.0,.0L6.9,-3.5L6.9,3.5" stroke-linecap="round"/></g><path fill="none" stroke-width="1.333330035209656" stroke="#000000" transform="matrix(-1.000000,0.000000,0.000000,1.000000,195.093176,362.667060)" d="M.0,.0L7.0,.0C8.9,-0.3,10.9,.4,12.3,1.7C13.6,3.1,14.3,5.1,14.0,7.0L14.0,63.2C13.7,65.1,14.4,67.1,15.7,68.5C17.1,69.8,19.1,70.5,21.0,70.2C19.1,69.9,17.1,70.6,15.7,72.0C14.4,73.3,13.7,75.3,14.0,77.2L14.0,133.4C14.3,135.4,13.6,137.3,12.3,138.7C10.9,140.1,8.9,140.7,7.0,140.4L.0,140.4" id="shape22"/><g transform="translate(181.093176,333.092060)" id="shape23"><text style="fill:#191919;font-family:微软雅黑,PingFang SC,Mircrosoft YaHei,Arial;font-size:10.00pt" xml:space="preserve"><tspan style="font-family:微软雅黑,PingFang SC,Mircrosoft YaHei,Arial" x="20.0" y="20.7">信号处理程序</tspan><tspan style="font-family:微软雅黑,PingFang SC,Mircrosoft YaHei,Arial" x="31.0" y="38.7">recvfrom</tspan></text></g><g transform="translate(53.000000,405.879560)" id="shape24"><text style="fill:#191919;font-family:微软雅黑,PingFang SC,Mircrosoft YaHei,Arial;font-size:10.00pt" xml:space="preserve"><tspan style="font-family:微软雅黑,PingFang SC,Mircrosoft YaHei,Arial" x="6.7" y="20.7">数据复制到应用缓</tspan><tspan style="font-family:微软雅黑,PingFang SC,Mircrosoft YaHei,Arial" x="6.7" y="38.7">冲区期间进程阻塞</tspan></text></g><g transform="translate(284.000000,247.000000)" id="shape25"><path fill="none" stroke-width="1.333330035209656" stroke="#191919" d="M6.9,.0L185.0,.0"/><path fill="#191919" stroke-width="1" stroke="#191919" d="M6.9,3.5L.0,.0L6.9,-3.5L6.9,3.5" stroke-linecap="round"/></g><g transform="translate(309.020176,241.092760)" id="shape26"><text style="fill:#191919;font-family:微软雅黑,PingFang SC,Mircrosoft YaHei,Arial;font-size:10.00pt" xml:space="preserve"><tspan style="font-family:微软雅黑,PingFang SC,Mircrosoft YaHei,Arial" x="46.7" y="20.2">返回</tspan></text></g></g></svg>