<svg xmlns="http://www.w3.org/2000/svg" width="646" xmlns:xlink="http://www.w3.org/1999/xlink" viewBox="0 0 646 383" height="383"><defs/><g transform="translate(-229.74,-328.00)"><g transform="translate(240.000000,329.000000)" id="shape1"><path fill="#ffffff" stroke-width="1" stroke="#101843" d="M100.0,30.5L100.0,.0L.0,.0L.0,30.5L100.0,30.5z" fill-rule="nonzero"/><text style="fill:#191919;font-family:微软雅黑,PingFang SC,Mircrosoft YaHei,Arial;font-size:10.00pt" xml:space="preserve"><tspan style="font-family:微软雅黑,PingFang SC,Mircrosoft YaHei,Arial" x="17.7" y="18.4">阻塞式 I/O</tspan></text></g><path fill="#ffffff" stroke-width="1" stroke="#101843" transform="translate(240.000000,359.000000)" d="M100.0,4.0L100.0,.0L.0,.0L.0,4.0L100.0,4.0z" id="shape2" fill-rule="nonzero"/><g transform="translate(240.000000,363.000000)" id="shape3"><path fill="#ffffff" stroke-width="1" stroke="#101843" d="M100.0,287.0L100.0,.0L.0,.0L.0,287.0L100.0,287.0z" fill-rule="nonzero"/><text style="fill:#191919;font-family:微软雅黑,PingFang SC,Mircrosoft YaHei,Arial;font-size:10.00pt" xml:space="preserve"><tspan style="font-family:微软雅黑,PingFang SC,Mircrosoft YaHei,Arial" x="36.7" y="16.7">发起</tspan></text></g><g transform="translate(340.000000,329.000000)" id="shape4"><path fill="#ffffff" stroke-width="1" stroke="#101843" d="M100.0,30.5L100.0,.0L.0,.0L.0,30.5L100.0,30.5z" fill-rule="nonzero"/><text style="fill:#191919;font-family:微软雅黑,PingFang SC,Mircrosoft YaHei,Arial;font-size:10.00pt" xml:space="preserve"><tspan style="font-family:微软雅黑,PingFang SC,Mircrosoft YaHei,Arial" x="11.0" y="18.7">非阻塞式 I/O</tspan></text></g><path fill="#ffffff" stroke-width="1" stroke="#101843" transform="translate(340.000000,359.000000)" d="M100.0,4.0L100.0,.0L.0,.0L.0,4.0L100.0,4.0z" id="shape5" fill-rule="nonzero"/><g transform="translate(340.000000,363.000000)" id="shape6"><path fill="#ffffff" stroke-width="1" stroke="#101843" d="M100.0,287.0L100.0,.0L.0,.0L.0,287.0L100.0,287.0z" fill-rule="nonzero"/><text style="fill:#191919;font-family:微软雅黑,PingFang SC,Mircrosoft YaHei,Arial;font-size:10.00pt" xml:space="preserve"><tspan style="font-family:微软雅黑,PingFang SC,Mircrosoft YaHei,Arial" x="36.7" y="16.7">检查</tspan><tspan style="font-family:微软雅黑,PingFang SC,Mircrosoft YaHei,Arial" x="36.7" y="34.7">检查</tspan><tspan style="font-family:微软雅黑,PingFang SC,Mircrosoft YaHei,Arial" x="36.7" y="52.7">检查</tspan><tspan style="font-family:微软雅黑,PingFang SC,Mircrosoft YaHei,Arial" x="36.7" y="70.7">检查</tspan><tspan style="font-family:微软雅黑,PingFang SC,Mircrosoft YaHei,Arial" x="36.7" y="88.7">检查</tspan><tspan style="font-family:微软雅黑,PingFang SC,Mircrosoft YaHei,Arial" x="36.7" y="106.7">检查</tspan><tspan style="font-family:微软雅黑,PingFang SC,Mircrosoft YaHei,Arial" x="36.7" y="124.7">检查</tspan><tspan style="font-family:微软雅黑,PingFang SC,Mircrosoft YaHei,Arial" x="36.7" y="142.7">检查</tspan><tspan style="font-family:微软雅黑,PingFang SC,Mircrosoft YaHei,Arial" x="36.7" y="160.7">检查</tspan></text></g><g transform="translate(440.000000,329.000000)" id="shape7"><path fill="#ffffff" stroke-width="1" stroke="#101843" d="M100.0,30.5L100.0,.0L.0,.0L.0,30.5L100.0,30.5z" fill-rule="nonzero"/><text style="fill:#191919;font-family:微软雅黑,PingFang SC,Mircrosoft YaHei,Arial;font-size:10.00pt" xml:space="preserve"><tspan style="font-family:微软雅黑,PingFang SC,Mircrosoft YaHei,Arial" x="24.3" y="18.4">I/O 复用</tspan></text></g><path fill="#ffffff" stroke-width="1" stroke="#101843" transform="translate(440.000000,359.000000)" d="M100.0,4.0L100.0,.0L.0,.0L.0,4.0L100.0,4.0z" id="shape8" fill-rule="nonzero"/><g transform="translate(440.000000,363.000000)" id="shape9"><path fill="#ffffff" stroke-width="1" stroke="#101843" d="M100.0,287.0L100.0,.0L.0,.0L.0,287.0L100.0,287.0z" fill-rule="nonzero"/><text style="fill:#191919;font-family:微软雅黑,PingFang SC,Mircrosoft YaHei,Arial;font-size:10.00pt" xml:space="preserve"><tspan style="font-family:微软雅黑,PingFang SC,Mircrosoft YaHei,Arial" x="36.7" y="16.7">检查</tspan></text></g><g transform="translate(540.000000,329.000000)" id="shape10"><path fill="#ffffff" stroke-width="1" stroke="#101843" d="M100.0,30.5L100.0,.0L.0,.0L.0,30.5L100.0,30.5z" fill-rule="nonzero"/><text style="fill:#191919;font-family:微软雅黑,PingFang SC,Mircrosoft YaHei,Arial;font-size:10.00pt" xml:space="preserve"><tspan style="font-family:微软雅黑,PingFang SC,Mircrosoft YaHei,Arial" x="4.3" y="18.7">信号驱动式 I/O</tspan></text></g><path fill="#ffffff" stroke-width="1" stroke="#101843" transform="translate(540.000000,359.000000)" d="M100.0,4.0L100.0,.0L.0,.0L.0,4.0L100.0,4.0z" id="shape11" fill-rule="nonzero"/><path fill="#ffffff" stroke-width="1" stroke="#101843" transform="translate(540.000000,363.000000)" d="M100.0,287.0L100.0,.0L.0,.0L.0,287.0L100.0,287.0z" id="shape12" fill-rule="nonzero"/><g transform="translate(640.000000,329.000000)" id="shape13"><path fill="#ffffff" stroke-width="1" stroke="#101843" d="M100.0,30.5L100.0,.0L.0,.0L.0,30.5L100.0,30.5z" fill-rule="nonzero"/><text style="fill:#191919;font-family:微软雅黑,PingFang SC,Mircrosoft YaHei,Arial;font-size:10.00pt" xml:space="preserve"><tspan style="font-family:微软雅黑,PingFang SC,Mircrosoft YaHei,Arial" x="24.3" y="18.7">异步 I/O</tspan></text></g><path fill="#ffffff" stroke-width="1" stroke="#101843" transform="translate(640.000000,359.000000)" d="M100.0,4.0L100.0,.0L.0,.0L.0,4.0L100.0,4.0z" id="shape14" fill-rule="nonzero"/><path fill="#ffffff" stroke-width="1" stroke="#101843" transform="translate(640.000000,363.000000)" d="M100.0,287.0L100.0,.0L.0,.0L.0,287.0L100.0,287.0z" id="shape15" fill-rule="nonzero"/><g transform="translate(289.000000,399.000000)" id="shape16"><path fill="none" stroke-width="1.333333373069763" stroke="#191919" d="M.0,.0L.0,208.1"/><path fill="#191919" stroke-width="1" stroke="#191919" d="M3.5,208.1L.0,215.0L-3.5,208.1L3.5,208.1" stroke-linecap="round"/></g><g transform="matrix(0.000000,-1.000000,1.000000,0.000000,285.000000,541.526418)" id="shape17"><text style="fill:#191919;font-family:微软雅黑,PingFang SC,Mircrosoft YaHei,Arial;font-size:10.00pt" xml:space="preserve"><tspan style="font-family:微软雅黑,PingFang SC,Mircrosoft YaHei,Arial" x="15.4" y="20.2">阻塞</tspan></text></g><g transform="translate(387.000000,537.000000)" id="shape18"><path fill="none" stroke-width="1.333330035209656" stroke="#191919" d="M.0,.0L.0,72.1"/><path fill="#191919" stroke-width="1" stroke="#191919" d="M3.5,72.1L.0,79.0L-3.5,72.1L3.5,72.1" stroke-linecap="round"/></g><g transform="matrix(0.000000,-1.000000,1.000000,0.000000,395.000000,605.000000)" id="shape19"><text style="fill:#191919;font-family:微软雅黑,PingFang SC,Mircrosoft YaHei,Arial;font-size:10.00pt" xml:space="preserve"><tspan style="font-family:微软雅黑,PingFang SC,Mircrosoft YaHei,Arial" x="15.4" y="13.7">阻塞</tspan></text></g><g transform="translate(491.000000,556.000000)" id="shape20"><path fill="none" stroke-width="1.333330035209656" stroke="#191919" d="M.0,.0L.0,57.1"/><path fill="#191919" stroke-width="1" stroke="#191919" d="M3.5,57.1L.0,64.0L-3.5,57.1L3.5,57.1" stroke-linecap="round"/></g><g transform="translate(488.000000,393.000000)" id="shape21"><path fill="none" stroke-width="1.333330035209656" stroke="#191919" d="M.0,.0L.0,106.1"/><path fill="#191919" stroke-width="1" stroke="#191919" d="M3.5,106.1L.0,113.0L-3.5,106.1L3.5,106.1" stroke-linecap="round"/></g><path fill="none" stroke-width="1" stroke="#191919" transform="translate(540.000000,506.500000)" d="M.0,.0L.0,.0" id="shape22"/><g transform="matrix(0.000000,-1.000000,1.000000,0.000000,484.000000,473.526400)" id="shape23"><text style="fill:#191919;font-family:微软雅黑,PingFang SC,Mircrosoft YaHei,Arial;font-size:10.00pt" xml:space="preserve"><tspan style="font-family:微软雅黑,PingFang SC,Mircrosoft YaHei,Arial" x="15.4" y="20.2">阻塞</tspan></text></g><g transform="matrix(0.000000,-1.000000,1.000000,0.000000,491.000000,605.000000)" id="shape24"><text style="fill:#191919;font-family:微软雅黑,PingFang SC,Mircrosoft YaHei,Arial;font-size:10.00pt" xml:space="preserve"><tspan style="font-family:微软雅黑,PingFang SC,Mircrosoft YaHei,Arial" x="15.4" y="20.2">阻塞</tspan></text></g><g transform="matrix(0.000000,-1.000000,1.000000,0.000000,586.000000,612.000000)" id="shape25"><text style="fill:#191919;font-family:微软雅黑,PingFang SC,Mircrosoft YaHei,Arial;font-size:10.00pt" xml:space="preserve"><tspan style="font-family:微软雅黑,PingFang SC,Mircrosoft YaHei,Arial" x="15.4" y="20.2">阻塞</tspan></text></g><g transform="translate(590.000000,556.000000)" id="shape26"><path fill="none" stroke-width="1.333330035209656" stroke="#191919" d="M.0,.0L.0,57.1"/><path fill="#191919" stroke-width="1" stroke="#191919" d="M3.5,57.1L.0,64.0L-3.5,57.1L3.5,57.1" stroke-linecap="round"/></g><path fill="none" stroke-width="1.333333373069763" stroke="#4155c6" transform="translate(748.000000,522.000000)" d="M.0,.0L9.0,.0C11.5,-0.4,14.0,.5,15.8,2.2C17.5,4.0,18.4,6.5,18.0,9.0L18.0,55.0C17.6,57.5,18.5,60.0,20.2,61.8C22.0,63.5,24.5,64.4,27.0,64.0C24.5,63.6,22.0,64.5,20.2,66.2C18.5,68.0,17.6,70.5,18.0,73.0L18.0,119.0C18.4,121.5,17.5,124.0,15.8,125.8C14.0,127.5,11.5,128.4,9.0,128.0L.0,128.0" id="shape27"/><g transform="translate(756.000000,546.736800)" id="shape28"><text style="fill:#191919;font-family:微软雅黑,PingFang SC,Mircrosoft YaHei,Arial;font-size:10.00pt" xml:space="preserve"><tspan style="font-family:微软雅黑,PingFang SC,Mircrosoft YaHei,Arial" x="33.3" y="20.7">将数据从</tspan><tspan style="font-family:微软雅黑,PingFang SC,Mircrosoft YaHei,Arial" x="26.7" y="38.7">内核复制到</tspan><tspan style="font-family:微软雅黑,PingFang SC,Mircrosoft YaHei,Arial" x="33.3" y="56.7">用户空间</tspan></text></g><g transform="translate(748.000000,363.000000)" id="shape29"><path fill="none" stroke-width="1.333330035209656" stroke="#4155c6" d="M.0,.0L9.0,.0C11.5,-0.4,14.0,.5,15.8,2.2C17.5,4.0,18.4,6.5,18.0,9.0L18.0,66.5C17.6,69.0,18.5,71.5,20.2,73.3C22.0,75.0,24.5,75.9,27.0,75.5C24.5,75.1,22.0,76.0,20.2,77.7C18.5,79.5,17.6,82.0,18.0,84.5L18.0,142.0C18.4,144.5,17.5,147.0,15.8,148.8C14.0,150.5,11.5,151.4,9.0,151.0L.0,151.0"/><text style="fill:#191919;font-family:微软雅黑,PingFang SC,Mircrosoft YaHei,Arial;font-size:10.00pt" xml:space="preserve"><tspan style="font-family:微软雅黑,PingFang SC,Mircrosoft YaHei,Arial" x="40.3" y="78.7">等待数据</tspan></text></g><path fill="none" stroke-width="1.333330035209656" stroke="#4155c6" transform="matrix(0.000000,1.000000,-1.000000,0.000000,639.000000,658.000000)" d="M.0,.0L9.0,.0C11.5,-0.4,14.0,.5,15.8,2.2C17.5,4.0,18.4,6.5,18.0,9.0L18.0,190.5C17.6,192.9,18.5,195.4,20.2,197.2C22.0,199.0,24.5,199.8,27.0,199.5C24.5,199.1,22.0,199.9,20.2,201.7C18.5,203.5,17.6,206.0,18.0,208.5L18.0,389.9C18.4,392.4,17.5,394.9,15.8,396.7C14.0,398.4,11.5,399.3,9.0,398.9L.0,398.9" id="shape30"/><g transform="translate(249.085929,680.000000)" id="shape31"><text style="fill:#191919;font-family:微软雅黑,PingFang SC,Mircrosoft YaHei,Arial;font-size:10.00pt" xml:space="preserve"><tspan style="font-family:微软雅黑,PingFang SC,Mircrosoft YaHei,Arial" x="4.0" y="16.7">第一阶段处理不同，第二阶段处理系统（阻塞于recvfrom 调用）</tspan></text></g><path fill="none" stroke-width="1.333330035209656" stroke="#4155c6" transform="matrix(0.000000,1.000000,-1.000000,0.000000,741.000000,658.000000)" d="M.0,.0L9.0,.0C11.5,-0.4,14.0,.5,15.8,2.2C17.5,4.0,18.4,6.5,18.0,9.0L18.0,41.5C17.6,43.9,18.5,46.4,20.2,48.2C22.0,50.0,24.5,50.8,27.0,50.5C24.5,50.1,22.0,50.9,20.2,52.7C18.5,54.5,17.6,57.0,18.0,59.5L18.0,91.9C18.4,94.4,17.5,96.9,15.8,98.7C14.0,100.4,11.5,101.3,9.0,100.9L.0,100.9" id="shape32"/><g transform="translate(630.000000,676.500000)" id="shape33"><text style="fill:#191919;font-family:微软雅黑,PingFang SC,Mircrosoft YaHei,Arial;font-size:10.00pt" xml:space="preserve"><tspan style="font-family:微软雅黑,PingFang SC,Mircrosoft YaHei,Arial" x="20.0" y="20.2">处理两个阶段</tspan></text></g><g transform="translate(230.000000,616.000000)" id="shape34"><text style="fill:#191919;font-family:微软雅黑,PingFang SC,Mircrosoft YaHei,Arial;font-size:10.00pt" xml:space="preserve"><tspan style="font-family:微软雅黑,PingFang SC,Mircrosoft YaHei,Arial" x="46.7" y="20.2">完成</tspan></text></g><g transform="translate(630.540015,616.000000)" id="shape35"><text style="fill:#191919;font-family:微软雅黑,PingFang SC,Mircrosoft YaHei,Arial;font-size:10.00pt" xml:space="preserve"><tspan style="font-family:微软雅黑,PingFang SC,Mircrosoft YaHei,Arial" x="46.7" y="20.2">通知</tspan></text></g><g transform="translate(330.000000,616.000000)" id="shape36"><text style="fill:#191919;font-family:微软雅黑,PingFang SC,Mircrosoft YaHei,Arial;font-size:10.00pt" xml:space="preserve"><tspan style="font-family:微软雅黑,PingFang SC,Mircrosoft YaHei,Arial" x="46.7" y="20.2">完成</tspan></text></g><g transform="translate(430.000000,502.000000)" id="shape37"><text style="fill:#191919;font-family:微软雅黑,PingFang SC,Mircrosoft YaHei,Arial;font-size:10.00pt" xml:space="preserve"><tspan style="font-family:微软雅黑,PingFang SC,Mircrosoft YaHei,Arial" x="46.7" y="20.7">就绪</tspan><tspan style="font-family:微软雅黑,PingFang SC,Mircrosoft YaHei,Arial" x="46.7" y="38.7">发起</tspan></text></g><g transform="translate(430.000000,616.000000)" id="shape38"><text style="fill:#191919;font-family:微软雅黑,PingFang SC,Mircrosoft YaHei,Arial;font-size:10.00pt" xml:space="preserve"><tspan style="font-family:微软雅黑,PingFang SC,Mircrosoft YaHei,Arial" x="46.7" y="20.2">完成</tspan></text></g><g transform="translate(530.000000,502.000000)" id="shape39"><text style="fill:#191919;font-family:微软雅黑,PingFang SC,Mircrosoft YaHei,Arial;font-size:10.00pt" xml:space="preserve"><tspan style="font-family:微软雅黑,PingFang SC,Mircrosoft YaHei,Arial" x="46.7" y="20.7">通知</tspan><tspan style="font-family:微软雅黑,PingFang SC,Mircrosoft YaHei,Arial" x="46.7" y="38.7">发起</tspan></text></g><g transform="translate(530.000000,616.000000)" id="shape40"><text style="fill:#191919;font-family:微软雅黑,PingFang SC,Mircrosoft YaHei,Arial;font-size:10.00pt" xml:space="preserve"><tspan style="font-family:微软雅黑,PingFang SC,Mircrosoft YaHei,Arial" x="46.7" y="20.2">完成</tspan></text></g></g></svg>