<svg xmlns="http://www.w3.org/2000/svg" width="625" xmlns:xlink="http://www.w3.org/1999/xlink" viewBox="0 0 625 349" height="349"><defs/><g transform="translate(-114.76,-167.61)"><g transform="translate(224.686843,167.608727)" id="shape1"><text style="fill:#191919;font-family:微软雅黑,PingFang SC,Mircrosoft YaHei,Arial;font-size:11.00pt;font-weight:bold" xml:space="preserve"><tspan style="font-family:微软雅黑,PingFang SC,Mircrosoft YaHei,Arial" x="30.7" y="22.2">应用进程</tspan></text></g><g transform="translate(224.686843,201.608727)" id="shape2"><text style="fill:#191919;font-family:微软雅黑,PingFang SC,Mircrosoft YaHei,Arial;font-size:10.00pt" xml:space="preserve"><tspan style="font-family:微软雅黑,PingFang SC,Mircrosoft YaHei,Arial" x="33.0" y="20.2">aio_read</tspan></text></g><g transform="translate(507.759843,167.608727)" id="shape3"><text style="fill:#191919;font-family:微软雅黑,PingFang SC,Mircrosoft YaHei,Arial;font-size:11.00pt;font-weight:bold" xml:space="preserve"><tspan style="font-family:微软雅黑,PingFang SC,Mircrosoft YaHei,Arial" x="45.3" y="22.2">内核</tspan></text></g><g transform="translate(507.759843,201.608727)" id="shape4"><text style="fill:#191919;font-family:微软雅黑,PingFang SC,Mircrosoft YaHei,Arial;font-size:10.00pt" xml:space="preserve"><tspan style="font-family:微软雅黑,PingFang SC,Mircrosoft YaHei,Arial" x="13.3" y="20.2">无数据报准备好</tspan></text></g><g transform="translate(322.759843,218.608727)" id="shape5"><path fill="none" stroke-width="1.333330035209656" stroke="#191919" d="M.0,.0L178.1,.0"/><path fill="#191919" stroke-width="1" stroke="#191919" d="M178.1,-3.5L185.0,.0L178.1,3.5L178.1,-3.5" stroke-linecap="round"/></g><g transform="translate(567.759843,236.758727)" id="shape6"><path fill="none" stroke-width="1.333330035209656" stroke="#191919" d="M.0,.0L.0,68.1"/><path fill="#191919" stroke-width="1" stroke="#191919" d="M3.5,68.1L.0,75.0L-3.5,68.1L3.5,68.1" stroke-linecap="round"/></g><g transform="translate(507.759843,311.758727)" id="shape7"><text style="fill:#191919;font-family:微软雅黑,PingFang SC,Mircrosoft YaHei,Arial;font-size:10.00pt" xml:space="preserve"><tspan style="font-family:微软雅黑,PingFang SC,Mircrosoft YaHei,Arial" x="20.0" y="20.7">数据报准备好</tspan><tspan style="font-family:微软雅黑,PingFang SC,Mircrosoft YaHei,Arial" x="26.7" y="38.7">复制数据报</tspan></text></g><g transform="translate(567.759843,368.758727)" id="shape8"><path fill="none" stroke-width="1.333330035209656" stroke="#191919" d="M.0,.0L.0,87.1"/><path fill="#191919" stroke-width="1" stroke="#191919" d="M3.5,87.1L.0,94.0L-3.5,87.1L3.5,87.1" stroke-linecap="round"/></g><g transform="translate(351.000000,187.758727)" id="shape9"><text style="fill:#191919;font-family:微软雅黑,PingFang SC,Mircrosoft YaHei,Arial;font-size:10.00pt" xml:space="preserve"><tspan style="font-family:微软雅黑,PingFang SC,Mircrosoft YaHei,Arial" x="33.3" y="20.2">系统调用</tspan></text></g><g transform="translate(507.759843,462.758727)" id="shape10"><text style="fill:#191919;font-family:微软雅黑,PingFang SC,Mircrosoft YaHei,Arial;font-size:10.00pt" xml:space="preserve"><tspan style="font-family:微软雅黑,PingFang SC,Mircrosoft YaHei,Arial" x="33.3" y="20.2">复制完成</tspan></text></g><path fill="none" stroke-width="1.333330035209656" stroke="#000000" transform="translate(619.759843,217.758727)" d="M.0,.0L7.0,.0C8.9,-0.3,10.9,.4,12.3,1.7C13.6,3.1,14.3,5.1,14.0,7.0L14.0,55.0C13.7,56.9,14.4,58.9,15.7,60.3C17.1,61.6,19.1,62.3,21.0,62.0C19.1,61.7,17.1,62.4,15.7,63.7C14.4,65.1,13.7,67.1,14.0,69.0L14.0,117.0C14.3,118.9,13.6,120.9,12.3,122.3C10.9,123.6,8.9,124.3,7.0,124.0L.0,124.0" id="shape11"/><g transform="translate(611.759843,262.758727)" id="shape12"><text style="fill:#191919;font-family:微软雅黑,PingFang SC,Mircrosoft YaHei,Arial;font-size:10.00pt" xml:space="preserve"><tspan style="font-family:微软雅黑,PingFang SC,Mircrosoft YaHei,Arial" x="33.3" y="20.2">等待数据</tspan></text></g><path fill="none" stroke-width="1.333330035209656" stroke="#000000" transform="translate(619.759843,349.758727)" d="M.0,.0L7.0,.0C8.9,-0.3,10.9,.4,12.3,1.7C13.6,3.1,14.3,5.1,14.0,7.0L14.0,55.0C13.7,56.9,14.4,58.9,15.7,60.3C17.1,61.6,19.1,62.3,21.0,62.0C19.1,61.7,17.1,62.4,15.7,63.7C14.4,65.1,13.7,67.1,14.0,69.0L14.0,117.0C14.3,118.9,13.6,120.9,12.3,122.3C10.9,123.6,8.9,124.3,7.0,124.0L.0,124.0" id="shape13"/><g transform="translate(619.759843,375.258727)" id="shape14"><text style="fill:#191919;font-family:微软雅黑,PingFang SC,Mircrosoft YaHei,Arial;font-size:10.00pt" xml:space="preserve"><tspan style="font-family:微软雅黑,PingFang SC,Mircrosoft YaHei,Arial" x="33.3" y="20.7">将数据从</tspan><tspan style="font-family:微软雅黑,PingFang SC,Mircrosoft YaHei,Arial" x="26.7" y="38.7">内核复制到</tspan><tspan style="font-family:微软雅黑,PingFang SC,Mircrosoft YaHei,Arial" x="33.3" y="56.7">用户空间</tspan></text></g><g transform="translate(326.759843,481.758727)" id="shape15"><path fill="none" stroke-width="1.333330035209656" stroke="#191919" d="M6.9,.0L176.0,.0"/><path fill="#191919" stroke-width="1" stroke="#191919" d="M6.9,3.5L.0,.0L6.9,-3.5L6.9,3.5" stroke-linecap="round"/></g><g transform="translate(224.686843,443.258727)" id="shape16"><text style="fill:#191919;font-family:微软雅黑,PingFang SC,Mircrosoft YaHei,Arial;font-size:10.00pt" xml:space="preserve"><tspan style="font-family:微软雅黑,PingFang SC,Mircrosoft YaHei,Arial" x="33.3" y="20.7">信号处理</tspan><tspan style="font-family:微软雅黑,PingFang SC,Mircrosoft YaHei,Arial" x="33.3" y="38.7">程序处理</tspan><tspan style="font-family:微软雅黑,PingFang SC,Mircrosoft YaHei,Arial" x="40.0" y="56.7">数据报</tspan></text></g><path fill="none" stroke-width="1.333330035209656" stroke="#000000" transform="matrix(-1.000000,0.000000,0.000000,1.000000,248.759843,217.758727)" d="M.0,.0L7.0,.0C8.9,-0.3,10.9,.4,12.3,1.7C13.6,3.1,14.3,5.1,14.0,7.0L14.0,125.0C13.7,126.9,14.4,128.9,15.7,130.3C17.1,131.6,19.1,132.3,21.0,132.0C19.1,131.7,17.1,132.4,15.7,133.7C14.4,135.1,13.7,137.1,14.0,139.0L14.0,257.0C14.3,258.9,13.6,260.9,12.3,262.3C10.9,263.6,8.9,264.3,7.0,264.0L.0,264.0" id="shape17"/><g transform="translate(114.759843,322.758727)" id="shape18"><text style="fill:#191919;font-family:微软雅黑,PingFang SC,Mircrosoft YaHei,Arial;font-size:10.00pt" xml:space="preserve"><tspan style="font-family:微软雅黑,PingFang SC,Mircrosoft YaHei,Arial" x="20.0" y="30.2">进程继续执行</tspan></text></g><g transform="translate(360.223343,449.758727)" id="shape19"><text style="fill:#191919;font-family:微软雅黑,PingFang SC,Mircrosoft YaHei,Arial;font-size:10.00pt" xml:space="preserve"><tspan style="font-family:微软雅黑,PingFang SC,Mircrosoft YaHei,Arial" x="14.2" y="20.2">提交在 aio_read 中</tspan></text></g><g transform="translate(321.000000,227.000000)" id="shape20"><path fill="none" stroke-width="1.333330035209656" stroke="#191919" d="M6.9,.0L185.0,.0"/><path fill="#191919" stroke-width="1" stroke="#191919" d="M6.9,3.5L.0,.0L6.9,-3.5L6.9,3.5" stroke-linecap="round"/></g><g transform="translate(351.000000,221.758727)" id="shape21"><text style="fill:#191919;font-family:微软雅黑,PingFang SC,Mircrosoft YaHei,Arial;font-size:10.00pt" xml:space="preserve"><tspan style="font-family:微软雅黑,PingFang SC,Mircrosoft YaHei,Arial" x="46.7" y="20.2">返回</tspan></text></g><g transform="translate(366.223343,478.258727)" id="shape22"><text style="fill:#191919;font-family:微软雅黑,PingFang SC,Mircrosoft YaHei,Arial;font-size:10.00pt" xml:space="preserve"><tspan style="font-family:微软雅黑,PingFang SC,Mircrosoft YaHei,Arial" x="26.7" y="21.2">指定的信号</tspan></text></g></g></svg>