<svg xmlns="http://www.w3.org/2000/svg" width="1069" xmlns:xlink="http://www.w3.org/1999/xlink" viewBox="0 0 1069 703" height="703"><defs/><g transform="translate(-72.00,-48.85)"><path fill="#d4e0f0" stroke-width="3.333329916000366" stroke="#29699b" transform="translate(225.740157,114.850394)" d="M379.3,603.1L379.3,.0L.0,.0L.0,603.1L379.3,603.1z" id="shape1" fill-rule="nonzero"/><g transform="translate(133.110236,102.000000)" id="shape2"><text style="fill:#454545;font-family:微软雅黑,PingFang SC,Mircrosoft YaHei,Arial;font-size:10.00pt;font-weight:bold" xml:space="preserve"><tspan style="font-family:微软雅黑,PingFang SC,Mircrosoft YaHei,Arial" x="9.0" y="20.2">0xFFFFFFFF</tspan></text></g><path fill="#d4e0f0" stroke-width="3.333329916000366" stroke="#29699b" transform="translate(225.740157,684.000000)" d="M379.3,34.0L379.3,.0L.0,.0L.0,34.0L379.3,34.0z" id="shape3" fill-rule="nonzero"/><g transform="translate(225.740157,114.850394)" id="shape4"><path fill="#d4e0f0" stroke-width="3.333329916000366" stroke="#29699b" d="M379.3,150.1L379.3,.0L.0,.0L.0,150.1L379.3,150.1z" fill-rule="nonzero"/><text style="fill:#29699b;font-family:微软雅黑,PingFang SC,Mircrosoft YaHei,Arial;font-size:10.00pt;font-weight:bold" xml:space="preserve"><tspan style="font-family:微软雅黑,PingFang SC,Mircrosoft YaHei,Arial" x="153.3" y="68.7">kernel 空间</tspan><tspan style="font-family:微软雅黑,PingFang SC,Mircrosoft YaHei,Arial" x="109.6" y="86.7">用户代码无法读写这些地址</tspan></text></g><g transform="translate(133.110257,699.000000)" id="shape5"><text style="fill:#454545;font-family:微软雅黑,PingFang SC,Mircrosoft YaHei,Arial;font-size:10.00pt;font-weight:bold" xml:space="preserve"><tspan style="font-family:微软雅黑,PingFang SC,Mircrosoft YaHei,Arial" x="6.3" y="20.2">0x00000000</tspan></text></g><g transform="translate(133.110247,249.000000)" id="shape6"><text style="fill:#454545;font-family:微软雅黑,PingFang SC,Mircrosoft YaHei,Arial;font-size:10.00pt;font-weight:bold" xml:space="preserve"><tspan style="font-family:微软雅黑,PingFang SC,Mircrosoft YaHei,Arial" x="6.0" y="20.2">0xC0000000</tspan></text></g><g transform="translate(192.740236,48.850394)" id="shape7"><text style="fill:#454545;font-family:微软雅黑,PingFang SC,Mircrosoft YaHei,Arial;font-size:14.00pt;font-weight:bold" xml:space="preserve"><tspan style="font-family:微软雅黑,PingFang SC,Mircrosoft YaHei,Arial" x="59.0" y="38.7">32位 x86 Linux 进程内存虚拟地址空间</tspan></text></g><g transform="translate(225.740157,650.000000)" id="shape8"><path fill="#d4e0f0" stroke-width="3.333329916000366" stroke="#29699b" d="M379.3,34.0L379.3,.0L.0,.0L.0,34.0L379.3,34.0z" fill-rule="nonzero"/><text style="fill:#29699b;font-family:微软雅黑,PingFang SC,Mircrosoft YaHei,Arial;font-size:10.00pt;font-weight:bold" xml:space="preserve"><tspan style="font-family:微软雅黑,PingFang SC,Mircrosoft YaHei,Arial" x="121.0" y="20.2">Text segment(ELF)...</tspan></text></g><g transform="translate(133.110247,665.000000)" id="shape9"><text style="fill:#454545;font-family:微软雅黑,PingFang SC,Mircrosoft YaHei,Arial;font-size:10.00pt;font-weight:bold" xml:space="preserve"><tspan style="font-family:微软雅黑,PingFang SC,Mircrosoft YaHei,Arial" x="6.3" y="20.2">0x08048000</tspan></text></g><path fill="none" stroke-width="1" stroke="#3c91d3" transform="translate(605.000157,114.850394)" d="M.0,.0L9.0,.0C11.5,-0.4,14.0,.5,15.8,2.2C17.5,4.0,18.4,6.5,18.0,9.0L18.0,66.1C17.6,68.6,18.5,71.1,20.2,72.8C22.0,74.6,24.5,75.4,27.0,75.1C24.5,74.7,22.0,75.6,20.2,77.3C18.5,79.1,17.6,81.6,18.0,84.1L18.0,141.1C18.4,143.6,17.5,146.1,15.8,147.9C14.0,149.7,11.5,150.5,9.0,150.1L.0,150.1" id="shape10"/><path fill="none" stroke-width="1" stroke="#3c91d3" transform="translate(605.000157,265.000000)" d="M.0,.0L9.0,.0C11.5,-0.4,14.0,.5,15.8,2.2C17.5,4.0,18.4,6.5,18.0,9.0L18.0,217.5C17.6,220.0,18.5,222.5,20.2,224.3C22.0,226.0,24.5,226.9,27.0,226.5C24.5,226.1,22.0,227.0,20.2,228.7C18.5,230.5,17.6,233.0,18.0,235.5L18.0,444.0C18.4,446.5,17.5,449.0,15.8,450.8C14.0,452.5,11.5,453.4,9.0,453.0L.0,453.0" id="shape11"/><g transform="translate(588.000000,170.000000)" id="shape12"><text style="fill:#454545;font-family:微软雅黑,PingFang SC,Mircrosoft YaHei,Arial;font-size:10.00pt;font-weight:bold" xml:space="preserve"><tspan style="font-family:微软雅黑,PingFang SC,Mircrosoft YaHei,Arial" x="46.3" y="20.2">1GB</tspan></text></g><g transform="translate(588.000000,474.500000)" id="shape13"><text style="fill:#454545;font-family:微软雅黑,PingFang SC,Mircrosoft YaHei,Arial;font-size:10.00pt;font-weight:bold" xml:space="preserve"><tspan style="font-family:微软雅黑,PingFang SC,Mircrosoft YaHei,Arial" x="46.3" y="20.2">3GB</tspan></text></g><g transform="translate(225.740000,488.000000)" id="shape14"><path fill="#d4e0f0" stroke-width="3.333329916000366" stroke="#29699b" d="M379.3,79.0L379.3,.0L.0,.0L.0,79.0L379.3,79.0z" fill-rule="nonzero"/><text style="fill:#29699b;font-family:微软雅黑,PingFang SC,Mircrosoft YaHei,Arial;font-size:10.00pt;font-weight:bold" xml:space="preserve"><tspan style="font-family:微软雅黑,PingFang SC,Mircrosoft YaHei,Arial" x="143.0" y="68.7">堆（向上生长）</tspan></text></g><g transform="translate(225.740000,308.000000)" id="shape15"><path fill="#d4e0f0" stroke-width="3.333329916000366" stroke="#29699b" d="M379.3,79.0L379.3,.0L.0,.0L.0,79.0L379.3,79.0z" fill-rule="nonzero"/><text style="fill:#29699b;font-family:微软雅黑,PingFang SC,Mircrosoft YaHei,Arial;font-size:10.00pt;font-weight:bold" xml:space="preserve"><tspan style="font-family:微软雅黑,PingFang SC,Mircrosoft YaHei,Arial" x="143.0" y="16.7">栈（向下生长）</tspan></text></g><path fill="#d4e0f0" stroke-width="3.333329916000366" stroke="#29699b" transform="matrix(-0.000000,1.000000,-1.000000,-0.000000,434.620000,340.000000)" d="M.0,11.5L29.7,11.5L29.7,.0L47.0,19.3L29.7,38.5L29.7,27.0L.0,27.0L.0,11.5z" id="shape16" fill-rule="nonzero"/><path fill="#d4e0f0" stroke-width="3.333329916000366" stroke="#29699b" transform="matrix(0.000000,-1.000000,-1.000000,0.000000,434.620000,535.000000)" d="M.0,11.6L29.7,11.6L29.7,.0L47.0,19.3L29.7,38.5L29.7,26.9L.0,26.9L.0,11.6z" id="shape17" fill-rule="nonzero"/><g transform="translate(72.000000,699.000000)" id="shape18"><text style="fill:#454545;font-family:微软雅黑,PingFang SC,Mircrosoft YaHei,Arial;font-size:10.00pt;font-weight:bold" xml:space="preserve"><tspan style="font-family:微软雅黑,PingFang SC,Mircrosoft YaHei,Arial" x="21.0" y="20.2">低地址</tspan></text></g><g transform="translate(79.847650,102.000000)" id="shape19"><text style="fill:#454545;font-family:微软雅黑,PingFang SC,Mircrosoft YaHei,Arial;font-size:10.00pt;font-weight:bold" xml:space="preserve"><tspan style="font-family:微软雅黑,PingFang SC,Mircrosoft YaHei,Arial" x="13.2" y="20.2">高地址</tspan></text></g><path fill="#389ab6" stroke-width="1" stroke="#389ab6" transform="matrix(0.000000,1.000000,1.000000,0.000000,106.695300,133.000000)" d="M.0,6.3L6.3,.0L6.3,3.8L572.0,3.8L572.0,8.8L6.3,8.8L6.3,12.6L.0,6.3z" id="shape20" fill-rule="nonzero"/><g transform="translate(183.370157,718.000000)" id="shape21"><text style="fill:#454545;font-family:微软雅黑,PingFang SC,Mircrosoft YaHei,Arial;font-size:10.00pt;font-weight:bold" xml:space="preserve"><tspan style="font-family:微软雅黑,PingFang SC,Mircrosoft YaHei,Arial" x="40.0" y="20.2">低地址</tspan></text></g><g transform="translate(527.370157,718.000000)" id="shape22"><text style="fill:#454545;font-family:微软雅黑,PingFang SC,Mircrosoft YaHei,Arial;font-size:10.00pt;font-weight:bold" xml:space="preserve"><tspan style="font-family:微软雅黑,PingFang SC,Mircrosoft YaHei,Arial" x="40.0" y="20.2">高地址</tspan></text></g><path fill="#389ab6" stroke-width="1" stroke="#389ab6" transform="matrix(-1.000000,-0.000000,0.000000,1.000000,559.370157,728.695313)" d="M.0,6.3L6.3,.0L6.3,3.8L293.0,3.8L293.0,8.8L6.3,8.8L6.3,12.6L.0,6.3z" id="shape23" fill-rule="nonzero"/><g transform="translate(577.000000,326.787402)" id="shape24"><path fill="none" stroke-width="3" stroke="#29699b" d="M.0,.0L115.5,43.8"/><path fill="#29699b" stroke-width="1" stroke="#29699b" d="M116.7,40.5L122.0,46.2L114.3,47.0L116.7,40.5" stroke-linecap="round"/></g><g transform="translate(711.000000,352.425197)" id="shape25"><path fill="#d4e0f0" stroke-width="3.333329916000366" stroke="#29699b" d="M100.0,60.0L100.0,.0L.0,.0L.0,60.0L100.0,60.0z" fill-rule="nonzero"/><text style="fill:#29699b;font-family:微软雅黑,PingFang SC,Mircrosoft YaHei,Arial;font-size:16.00pt;font-weight:bold" xml:space="preserve"><tspan style="font-family:微软雅黑,PingFang SC,Mircrosoft YaHei,Arial" x="23.7" y="37.3">0x78</tspan></text></g><g transform="translate(761.000000,279.901961)" id="shape26"><path fill="#364b63" stroke-width="1" stroke="#364b63" d="M.0,.0L354.4,.0L354.4,38.5L.0,38.5L.0,.0z" fill-rule="nonzero"/><text style="fill:#ffffff;font-family:Consolas,PingFang SC,Mircrosoft YaHei,Arial;font-size:16.00pt;font-weight:bold" xml:space="preserve"><tspan style="fill:#ffc000;font-family:Consolas,PingFang SC,Mircrosoft YaHei,Arial" x="9.2" y="25.5">uint32_t</tspan><tspan style="fill:#454545;font-family:Consolas,PingFang SC,Mircrosoft YaHei,Arial" x="105.2"> </tspan><tspan style="fill:#d3416d;font-family:Consolas,PingFang SC,Mircrosoft YaHei,Arial" x="117.2">value</tspan><tspan style="fill:#454545;font-family:Consolas,PingFang SC,Mircrosoft YaHei,Arial" x="177.2"> </tspan><tspan style="font-family:Consolas,PingFang SC,Mircrosoft YaHei,Arial" x="189.2">=</tspan><tspan style="fill:#454545;font-family:Consolas,PingFang SC,Mircrosoft YaHei,Arial" x="201.2"> </tspan><tspan style="fill:#d59028;font-family:Consolas,PingFang SC,Mircrosoft YaHei,Arial" x="213.2">0x12345678</tspan><tspan style="font-family:Consolas,PingFang SC,Mircrosoft YaHei,Arial" x="333.2">;</tspan></text></g><g transform="translate(811.000000,352.425197)" id="shape27"><path fill="#d4e0f0" stroke-width="3.333329916000366" stroke="#29699b" d="M100.0,60.0L100.0,.0L.0,.0L.0,60.0L100.0,60.0z" fill-rule="nonzero"/><text style="fill:#29699b;font-family:微软雅黑,PingFang SC,Mircrosoft YaHei,Arial;font-size:16.00pt;font-weight:bold" xml:space="preserve"><tspan style="font-family:微软雅黑,PingFang SC,Mircrosoft YaHei,Arial" x="23.7" y="37.3">0x56</tspan></text></g><g transform="translate(911.000000,352.425197)" id="shape28"><path fill="#d4e0f0" stroke-width="3.333329916000366" stroke="#29699b" d="M100.0,60.0L100.0,.0L.0,.0L.0,60.0L100.0,60.0z" fill-rule="nonzero"/><text style="fill:#29699b;font-family:微软雅黑,PingFang SC,Mircrosoft YaHei,Arial;font-size:16.00pt;font-weight:bold" xml:space="preserve"><tspan style="font-family:微软雅黑,PingFang SC,Mircrosoft YaHei,Arial" x="23.7" y="37.3">0x34</tspan></text></g><g transform="translate(1011.000000,352.425197)" id="shape29"><path fill="#d4e0f0" stroke-width="3.333329916000366" stroke="#29699b" d="M100.0,60.0L100.0,.0L.0,.0L.0,60.0L100.0,60.0z" fill-rule="nonzero"/><text style="fill:#29699b;font-family:微软雅黑,PingFang SC,Mircrosoft YaHei,Arial;font-size:16.00pt;font-weight:bold" xml:space="preserve"><tspan style="font-family:微软雅黑,PingFang SC,Mircrosoft YaHei,Arial" x="23.7" y="37.3">0x12</tspan></text></g><g transform="translate(711.000000,412.425197)" id="shape30"><text style="fill:#454545;font-family:微软雅黑,PingFang SC,Mircrosoft YaHei,Arial;font-size:10.00pt;font-weight:bold" xml:space="preserve"><tspan style="font-family:微软雅黑,PingFang SC,Mircrosoft YaHei,Arial" x="12.7" y="20.2">0x7ffe7a4</tspan><tspan style="fill:#ff0000;font-family:微软雅黑,PingFang SC,Mircrosoft YaHei,Arial" x="79.3">8</tspan></text></g><g transform="translate(811.000000,412.425197)" id="shape31"><text style="fill:#454545;font-family:微软雅黑,PingFang SC,Mircrosoft YaHei,Arial;font-size:10.00pt;font-weight:bold" xml:space="preserve"><tspan style="font-family:微软雅黑,PingFang SC,Mircrosoft YaHei,Arial" x="12.7" y="20.2">0x7ffe7a4</tspan><tspan style="fill:#ff0000;font-family:微软雅黑,PingFang SC,Mircrosoft YaHei,Arial" x="79.3">9</tspan></text></g><g transform="translate(911.000000,412.425197)" id="shape32"><text style="fill:#454545;font-family:微软雅黑,PingFang SC,Mircrosoft YaHei,Arial;font-size:10.00pt;font-weight:bold" xml:space="preserve"><tspan style="font-family:微软雅黑,PingFang SC,Mircrosoft YaHei,Arial" x="12.7" y="20.2">0x7ffe7a4</tspan><tspan style="fill:#ff0000;font-family:微软雅黑,PingFang SC,Mircrosoft YaHei,Arial" x="79.3">a</tspan></text></g><g transform="translate(1011.000000,412.425197)" id="shape33"><text style="fill:#454545;font-family:微软雅黑,PingFang SC,Mircrosoft YaHei,Arial;font-size:10.00pt;font-weight:bold" xml:space="preserve"><tspan style="font-family:微软雅黑,PingFang SC,Mircrosoft YaHei,Arial" x="12.3" y="20.2">0x7ffe7a4</tspan><tspan style="fill:#ff0000;font-family:微软雅黑,PingFang SC,Mircrosoft YaHei,Arial" x="79.0">b</tspan></text></g><path fill="#d4e0f0" stroke-width="3.333329916000366" stroke="#29699b" transform="translate(529.000000,317.574803)" d="M48.0,8.4L48.0,.0L.0,.0L.0,8.4L48.0,8.4z" id="shape34" fill-rule="nonzero"/><g transform="translate(701.000000,318.425197)" id="shape35"><text style="fill:#454545;font-family:微软雅黑,PingFang SC,Mircrosoft YaHei,Arial;font-size:10.00pt;font-weight:bold" xml:space="preserve"><tspan style="font-family:微软雅黑,PingFang SC,Mircrosoft YaHei,Arial" x="10.7" y="22.2">整数中</tspan><tspan style="fill:#ff0000;font-family:微软雅黑,PingFang SC,Mircrosoft YaHei,Arial;font-size:11.00pt" x="50.7">低位字节</tspan></text></g><g transform="translate(1001.000000,318.425197)" id="shape36"><text style="fill:#454545;font-family:微软雅黑,PingFang SC,Mircrosoft YaHei,Arial;font-size:10.00pt;font-weight:bold" xml:space="preserve"><tspan style="font-family:微软雅黑,PingFang SC,Mircrosoft YaHei,Arial" x="10.7" y="22.2">整数中</tspan><tspan style="fill:#ff0000;font-family:微软雅黑,PingFang SC,Mircrosoft YaHei,Arial;font-size:11.00pt" x="50.7">高位字节</tspan></text></g><g transform="translate(661.000000,281.425197)" id="shape37"><text style="fill:#454545;font-family:微软雅黑,PingFang SC,Mircrosoft YaHei,Arial;font-size:14.00pt;font-weight:bold" xml:space="preserve"><tspan style="font-family:微软雅黑,PingFang SC,Mircrosoft YaHei,Arial" x="22.0" y="25.7">小端机</tspan></text></g><g transform="translate(661.000000,440.500000)" id="shape38"><text style="fill:#454545;font-family:微软雅黑,PingFang SC,Mircrosoft YaHei,Arial;font-size:10.00pt;font-weight:bold" xml:space="preserve"><tspan style="font-family:微软雅黑,PingFang SC,Mircrosoft YaHei,Arial" x="24.7" y="22.2">内存</tspan><tspan style="fill:#ff0000;font-family:微软雅黑,PingFang SC,Mircrosoft YaHei,Arial;font-size:11.00pt" x="51.3">低地址</tspan></text></g><g transform="translate(1055.000000,440.500000)" id="shape39"><text style="fill:#454545;font-family:微软雅黑,PingFang SC,Mircrosoft YaHei,Arial;font-size:10.00pt;font-weight:bold" xml:space="preserve"><tspan style="font-family:微软雅黑,PingFang SC,Mircrosoft YaHei,Arial" x="7.7" y="22.2">内存</tspan><tspan style="fill:#ff0000;font-family:微软雅黑,PingFang SC,Mircrosoft YaHei,Arial;font-size:11.00pt" x="34.3">高地址</tspan></text></g><path fill="#389ab6" stroke-width="1" stroke="#389ab6" transform="matrix(-1.000000,-0.000000,0.000000,1.000000,1058.000000,451.195310)" d="M.0,6.3L6.3,.0L6.3,3.8L293.0,3.8L293.0,8.8L6.3,8.8L6.3,12.6L.0,6.3z" id="shape40" fill-rule="nonzero"/><g transform="translate(673.000000,412.425197)" id="shape41"><text style="fill:#454545;font-family:微软雅黑,PingFang SC,Mircrosoft YaHei,Arial;font-size:10.00pt;font-weight:bold" xml:space="preserve"><tspan style="font-family:微软雅黑,PingFang SC,Mircrosoft YaHei,Arial" x="13.2" y="20.2">地址</tspan></text></g></g></svg>