<svg xmlns:xlink="http://www.w3.org/1999/xlink" viewBox="0 0 625 382" height="382" width="625" xmlns="http://www.w3.org/2000/svg"><defs/><g transform="translate(-194.76,-286.94)"><g transform="translate(304.687000,286.942000)" id="shape1"><text xml:space="preserve" style="fill:#191919;font-family:微软雅黑,PingFang SC,Mircrosoft YaHei,Arial;font-size:11.00pt;font-weight:bold"><tspan y="22.2" x="30.7" style="font-family:微软雅黑,PingFang SC,Mircrosoft YaHei,Arial">应用进程</tspan></text></g><g transform="translate(304.687000,320.942000)" id="shape2"><text xml:space="preserve" style="fill:#191919;font-family:微软雅黑,PingFang SC,Mircrosoft YaHei,Arial;font-size:10.00pt"><tspan y="20.2" x="31.0" style="font-family:微软雅黑,PingFang SC,Mircrosoft YaHei,Arial">recvfrom</tspan></text></g><g transform="translate(587.760000,286.942000)" id="shape3"><text xml:space="preserve" style="fill:#191919;font-family:微软雅黑,PingFang SC,Mircrosoft YaHei,Arial;font-size:11.00pt;font-weight:bold"><tspan y="22.2" x="45.3" style="font-family:微软雅黑,PingFang SC,Mircrosoft YaHei,Arial">内核</tspan></text></g><g transform="translate(587.760000,320.942000)" id="shape4"><text xml:space="preserve" style="fill:#191919;font-family:微软雅黑,PingFang SC,Mircrosoft YaHei,Arial;font-size:10.00pt"><tspan y="20.2" x="13.3" style="font-family:微软雅黑,PingFang SC,Mircrosoft YaHei,Arial">无数据报准备好</tspan></text></g><g transform="translate(402.760000,337.942000)" id="shape5"><path stroke-width="1.333330035209656" fill="none" stroke="#191919" d="M.0,.0L178.1,.0"/><path stroke-width="1" fill="#191919" stroke="#191919" stroke-linecap="round" d="M178.1,-3.5L185.0,.0L178.1,3.5L178.1,-3.5"/></g><g transform="translate(647.760000,553.000000)" id="shape6"><path stroke-width="1.333330035209656" fill="none" stroke="#191919" d="M.0,.0L-0.7,78.1"/><path stroke-width="1" fill="#191919" stroke="#191919" stroke-linecap="round" d="M2.8,78.1L-0.8,85.0L-4.2,78.0L2.8,78.1"/></g><g transform="translate(435.000000,308.000000)" id="shape7"><text xml:space="preserve" style="fill:#191919;font-family:微软雅黑,PingFang SC,Mircrosoft YaHei,Arial;font-size:10.00pt"><tspan y="20.2" x="33.3" style="font-family:微软雅黑,PingFang SC,Mircrosoft YaHei,Arial">系统调用</tspan></text></g><g transform="translate(585.760000,635.092000)" id="shape8"><text xml:space="preserve" style="fill:#191919;font-family:微软雅黑,PingFang SC,Mircrosoft YaHei,Arial;font-size:10.00pt"><tspan y="20.2" x="33.3" style="font-family:微软雅黑,PingFang SC,Mircrosoft YaHei,Arial">复制完成</tspan></text></g><path stroke-width="1.333330035209656" fill="none" stroke="#000000" transform="translate(699.760000,337.092000)" d="M.0,.0L7.0,.0C8.9,-0.3,10.9,.4,12.3,1.7C13.6,3.1,14.3,5.1,14.0,7.0L14.0,84.5C13.7,86.4,14.4,88.3,15.7,89.7C17.1,91.1,19.1,91.7,21.0,91.5C19.1,91.2,17.1,91.8,15.7,93.2C14.4,94.6,13.7,96.5,14.0,98.5L14.0,175.9C14.3,177.8,13.6,179.8,12.3,181.2C10.9,182.5,8.9,183.2,7.0,182.9L.0,182.9" id="shape9"/><g transform="translate(693.000000,411.546000)" id="shape10"><text xml:space="preserve" style="fill:#191919;font-family:微软雅黑,PingFang SC,Mircrosoft YaHei,Arial;font-size:10.00pt"><tspan y="20.2" x="33.3" style="font-family:微软雅黑,PingFang SC,Mircrosoft YaHei,Arial">等待数据</tspan></text></g><path stroke-width="1.333330035209656" fill="none" stroke="#000000" transform="translate(699.760000,528.092000)" d="M.0,.0L7.0,.0C8.9,-0.3,10.9,.4,12.3,1.7C13.6,3.1,14.3,5.1,14.0,7.0L14.0,55.0C13.7,56.9,14.4,58.9,15.7,60.3C17.1,61.6,19.1,62.3,21.0,62.0C19.1,61.7,17.1,62.4,15.7,63.7C14.4,65.1,13.7,67.1,14.0,69.0L14.0,117.0C14.3,118.9,13.6,120.9,12.3,122.3C10.9,123.6,8.9,124.3,7.0,124.0L.0,124.0" id="shape11"/><g transform="translate(699.760000,553.592000)" id="shape12"><text xml:space="preserve" style="fill:#191919;font-family:微软雅黑,PingFang SC,Mircrosoft YaHei,Arial;font-size:10.00pt"><tspan y="20.7" x="33.3" style="font-family:微软雅黑,PingFang SC,Mircrosoft YaHei,Arial">将数据从</tspan><tspan y="38.7" x="26.7" style="font-family:微软雅黑,PingFang SC,Mircrosoft YaHei,Arial">内核复制到</tspan><tspan y="56.7" x="33.3" style="font-family:微软雅黑,PingFang SC,Mircrosoft YaHei,Arial">用户空间</tspan></text></g><g transform="translate(307.687000,634.092000)" id="shape13"><text xml:space="preserve" style="fill:#191919;font-family:微软雅黑,PingFang SC,Mircrosoft YaHei,Arial;font-size:10.00pt"><tspan y="20.2" x="26.7" style="font-family:微软雅黑,PingFang SC,Mircrosoft YaHei,Arial">处理数据报</tspan></text></g><path stroke-width="1.333330035209656" fill="none" stroke="#000000" transform="matrix(-1.000000,0.000000,0.000000,1.000000,328.760000,337.092000)" d="M.0,.0L7.0,.0C8.9,-0.3,10.9,.4,12.3,1.7C13.6,3.1,14.3,5.1,14.0,7.0L14.0,151.0C13.7,152.9,14.4,154.9,15.7,156.3C17.1,157.6,19.1,158.3,21.0,158.0C19.1,157.7,17.1,158.4,15.7,159.7C14.4,161.1,13.7,163.1,14.0,165.0L14.0,309.0C14.3,310.9,13.6,312.9,12.3,314.3C10.9,315.6,8.9,316.3,7.0,316.0L.0,316.0" id="shape14"/><g transform="translate(194.760000,452.092000)" id="shape15"><text xml:space="preserve" style="fill:#191919;font-family:微软雅黑,PingFang SC,Mircrosoft YaHei,Arial;font-size:10.00pt"><tspan y="20.7" x="20.0" style="font-family:微软雅黑,PingFang SC,Mircrosoft YaHei,Arial">进程反复调用</tspan><tspan y="38.7" x="15.7" style="font-family:微软雅黑,PingFang SC,Mircrosoft YaHei,Arial">recvfrom 等待</tspan><tspan y="56.7" x="20.0" style="font-family:微软雅黑,PingFang SC,Mircrosoft YaHei,Arial">返回成功指示</tspan><tspan y="74.7" x="33.3" style="font-family:微软雅黑,PingFang SC,Mircrosoft YaHei,Arial">（轮询）</tspan></text></g><g transform="translate(448.223000,619.092000)" id="shape16"><text xml:space="preserve" style="fill:#191919;font-family:微软雅黑,PingFang SC,Mircrosoft YaHei,Arial;font-size:10.00pt"><tspan y="20.2" x="20.0" style="font-family:微软雅黑,PingFang SC,Mircrosoft YaHei,Arial">返回成功指示</tspan></text></g><g transform="translate(401.000000,365.000000)" id="shape17"><path stroke-width="1.333330035209656" fill="none" stroke="#191919" d="M6.9,.0L185.0,.0"/><path stroke-width="1" fill="#191919" stroke="#191919" stroke-linecap="round" d="M6.9,3.5L.0,.0L6.9,-3.5L6.9,3.5"/></g><g transform="translate(434.999000,336.092000)" id="shape18"><text xml:space="preserve" style="fill:#191919;font-family:微软雅黑,PingFang SC,Mircrosoft YaHei,Arial;font-size:10.00pt"><tspan y="20.2" x="9.3" style="font-family:微软雅黑,PingFang SC,Mircrosoft YaHei,Arial">EWOULDBLOCK</tspan></text></g><g transform="translate(304.686000,389.034000)" id="shape19"><text xml:space="preserve" style="fill:#191919;font-family:微软雅黑,PingFang SC,Mircrosoft YaHei,Arial;font-size:10.00pt"><tspan y="20.2" x="31.0" style="font-family:微软雅黑,PingFang SC,Mircrosoft YaHei,Arial">recvfrom</tspan></text></g><g transform="translate(587.759000,389.034000)" id="shape20"><text xml:space="preserve" style="fill:#191919;font-family:微软雅黑,PingFang SC,Mircrosoft YaHei,Arial;font-size:10.00pt"><tspan y="20.2" x="13.3" style="font-family:微软雅黑,PingFang SC,Mircrosoft YaHei,Arial">无数据报准备好</tspan></text></g><g transform="translate(402.759000,406.034000)" id="shape21"><path stroke-width="1.333330035209656" fill="none" stroke="#191919" d="M.0,.0L178.1,.0"/><path stroke-width="1" fill="#191919" stroke="#191919" stroke-linecap="round" d="M178.1,-3.5L185.0,.0L178.1,3.5L178.1,-3.5"/></g><g transform="translate(434.999000,376.092000)" id="shape22"><text xml:space="preserve" style="fill:#191919;font-family:微软雅黑,PingFang SC,Mircrosoft YaHei,Arial;font-size:10.00pt"><tspan y="20.2" x="33.3" style="font-family:微软雅黑,PingFang SC,Mircrosoft YaHei,Arial">系统调用</tspan></text></g><g transform="translate(400.999000,433.092000)" id="shape23"><path stroke-width="1.333330035209656" fill="none" stroke="#191919" d="M6.9,.0L185.0,.0"/><path stroke-width="1" fill="#191919" stroke="#191919" stroke-linecap="round" d="M6.9,3.5L.0,.0L6.9,-3.5L6.9,3.5"/></g><g transform="translate(434.999000,404.092000)" id="shape24"><text xml:space="preserve" style="fill:#191919;font-family:微软雅黑,PingFang SC,Mircrosoft YaHei,Arial;font-size:10.00pt"><tspan y="20.2" x="9.3" style="font-family:微软雅黑,PingFang SC,Mircrosoft YaHei,Arial">EWOULDBLOCK</tspan></text></g><g transform="translate(302.686000,449.034000)" id="shape25"><text xml:space="preserve" style="fill:#191919;font-family:微软雅黑,PingFang SC,Mircrosoft YaHei,Arial;font-size:10.00pt"><tspan y="20.2" x="31.0" style="font-family:微软雅黑,PingFang SC,Mircrosoft YaHei,Arial">recvfrom</tspan></text></g><g transform="translate(585.759000,449.034000)" id="shape26"><text xml:space="preserve" style="fill:#191919;font-family:微软雅黑,PingFang SC,Mircrosoft YaHei,Arial;font-size:10.00pt"><tspan y="20.2" x="13.3" style="font-family:微软雅黑,PingFang SC,Mircrosoft YaHei,Arial">无数据报准备好</tspan></text></g><g transform="translate(400.759000,466.034000)" id="shape27"><path stroke-width="1.333330035209656" fill="none" stroke="#191919" d="M.0,.0L178.1,.0"/><path stroke-width="1" fill="#191919" stroke="#191919" stroke-linecap="round" d="M178.1,-3.5L185.0,.0L178.1,3.5L178.1,-3.5"/></g><g transform="translate(432.999000,436.092000)" id="shape28"><text xml:space="preserve" style="fill:#191919;font-family:微软雅黑,PingFang SC,Mircrosoft YaHei,Arial;font-size:10.00pt"><tspan y="20.2" x="33.3" style="font-family:微软雅黑,PingFang SC,Mircrosoft YaHei,Arial">系统调用</tspan></text></g><g transform="translate(398.999000,493.092000)" id="shape29"><path stroke-width="1.333330035209656" fill="none" stroke="#191919" d="M6.9,.0L185.0,.0"/><path stroke-width="1" fill="#191919" stroke="#191919" stroke-linecap="round" d="M6.9,3.5L.0,.0L6.9,-3.5L6.9,3.5"/></g><g transform="translate(432.999000,464.092000)" id="shape30"><text xml:space="preserve" style="fill:#191919;font-family:微软雅黑,PingFang SC,Mircrosoft YaHei,Arial;font-size:10.00pt"><tspan y="20.2" x="9.3" style="font-family:微软雅黑,PingFang SC,Mircrosoft YaHei,Arial">EWOULDBLOCK</tspan></text></g><g transform="translate(302.686000,510.034000)" id="shape31"><text xml:space="preserve" style="fill:#191919;font-family:微软雅黑,PingFang SC,Mircrosoft YaHei,Arial;font-size:10.00pt"><tspan y="20.2" x="31.0" style="font-family:微软雅黑,PingFang SC,Mircrosoft YaHei,Arial">recvfrom</tspan></text></g><g transform="translate(585.759000,500.034000)" id="shape32"><text xml:space="preserve" style="fill:#191919;font-family:微软雅黑,PingFang SC,Mircrosoft YaHei,Arial;font-size:10.00pt"><tspan y="20.7" x="20.0" style="font-family:微软雅黑,PingFang SC,Mircrosoft YaHei,Arial">数据报准备好</tspan><tspan y="38.7" x="26.7" style="font-family:微软雅黑,PingFang SC,Mircrosoft YaHei,Arial">复制数据报</tspan></text></g><g transform="translate(400.759000,527.034000)" id="shape33"><path stroke-width="1.333330035209656" fill="none" stroke="#191919" d="M.0,.0L178.1,.0"/><path stroke-width="1" fill="#191919" stroke="#191919" stroke-linecap="round" d="M178.1,-3.5L185.0,.0L178.1,3.5L178.1,-3.5"/></g><g transform="translate(432.999000,497.092000)" id="shape34"><text xml:space="preserve" style="fill:#191919;font-family:微软雅黑,PingFang SC,Mircrosoft YaHei,Arial;font-size:10.00pt"><tspan y="20.2" x="33.3" style="font-family:微软雅黑,PingFang SC,Mircrosoft YaHei,Arial">系统调用</tspan></text></g><g transform="translate(405.000000,653.000000)" id="shape35"><path stroke-width="1.333330035209656" fill="none" stroke="#191919" d="M6.9,.0L185.0,.0"/><path stroke-width="1" fill="#191919" stroke="#191919" stroke-linecap="round" d="M6.9,3.5L.0,.0L6.9,-3.5L6.9,3.5"/></g></g></svg>